<svg width="59" height="12" viewBox="0 0 59 12" fill="none" xmlns="http://www.w3.org/2000/svg">
<path fill-rule="evenodd" clip-rule="evenodd" d="M58.9905 3.04381C58.9905 2.98306 58.9443 2.91356 58.8887 2.88747C58.7587 2.818 58.5636 2.7747 58.1646 2.7747C57.264 2.7747 56.475 3.19139 56.1316 3.89465V3.04381C56.1316 2.9743 56.0668 2.91356 55.9833 2.91356H54.6464C54.5721 2.91356 54.5073 2.9657 54.5073 3.04381V8.8086C54.5073 8.87797 54.5721 8.93873 54.6556 8.93873L56.0668 8.93885C56.1408 8.93885 56.206 8.87797 56.206 8.8086V6.21277C56.206 5.05801 57.0692 4.485 58.1737 4.485C58.4337 4.485 58.6936 4.52829 58.8235 4.57183C58.9165 4.59792 59 4.53702 59 4.44158V3.03508L58.9905 3.04381ZM50.005 2.76598C51.9823 2.76598 53.4584 4.04223 53.4584 5.9261C53.4584 7.80145 51.9823 9.08632 50.0145 9.08632C48.0464 9.08632 46.5798 7.81017 46.5798 5.9261C46.5707 4.04223 48.0373 2.76598 50.005 2.76598ZM50.005 7.52371C50.9704 7.52371 51.7132 6.88983 51.7132 5.9261C51.7132 4.96245 50.9704 4.32009 50.005 4.32009C49.0491 4.32009 48.3064 4.96245 48.3064 5.9261C48.3158 6.88983 49.0583 7.52371 50.005 7.52371ZM42.1893 2.76598C44.1665 2.76598 45.6331 4.04223 45.6331 5.9261C45.6331 7.80145 44.1574 9.08632 42.1984 9.08632C40.2215 9.08632 38.7454 7.81017 38.7454 5.9261C38.7454 4.04223 40.212 2.76598 42.1893 2.76598ZM42.1893 7.52371C43.1546 7.52371 43.8971 6.88983 43.8971 5.9261C43.8971 4.96245 43.1546 4.32009 42.1984 4.32009C41.2425 4.32009 40.4997 4.96245 40.4997 5.9261C40.4906 6.89855 41.233 7.53235 42.1893 7.52371ZM37.5574 0.508604C37.6317 0.508604 37.6965 0.560746 37.6965 0.638852V8.8086C37.6965 8.87797 37.6409 8.93873 37.5574 8.93873L36.1461 8.93885C36.0718 8.93885 36.007 8.87797 36.007 8.8086V8.09673C35.5336 8.72177 34.8095 9.09505 33.8814 9.09505C32.294 9.09505 30.9666 7.96648 30.9666 5.92622C30.9666 3.88605 32.294 2.75734 33.8536 2.75734C34.856 2.75734 35.5709 3.20011 36.007 3.78176V0.638975C36.007 0.569472 36.0718 0.5 36.1556 0.5L37.5574 0.508604ZM34.3826 7.54968C35.3294 7.54968 36.063 6.92464 36.063 5.93482C36.063 4.93649 35.3294 4.32009 34.3826 4.32009C33.4264 4.32009 32.7026 4.96245 32.7026 5.93482C32.7026 6.91591 33.4264 7.54968 34.3826 7.54968ZM30.0384 7.12424C30.0384 8.49608 28.9802 9.08632 27.2722 9.08632C26.1026 9.08632 25.0815 8.78253 24.5061 8.17484C24.4595 8.12269 24.4595 8.05319 24.5061 8.00117L25.3135 7.00275C25.3692 6.93324 25.4713 6.93324 25.527 6.99402C25.954 7.41082 26.6223 7.6626 27.4393 7.6626C27.9127 7.6626 28.3025 7.54095 28.3025 7.20235C28.3025 6.8725 27.9498 6.80299 26.8731 6.58604C25.9261 6.40364 24.7472 5.99557 24.7472 4.68463C24.7472 3.46049 25.7777 2.76598 27.4485 2.76598C28.5531 2.76598 29.3422 3.0785 29.8991 3.57341C29.9549 3.62543 29.9549 3.70353 29.9085 3.7558L29.1379 4.70208C29.0916 4.76282 28.9987 4.77146 28.9338 4.72804C28.5624 4.40689 27.9312 4.21577 27.3093 4.21577C26.7894 4.21577 26.4924 4.37211 26.4924 4.63261C26.4924 4.93649 26.8452 5.00587 27.9777 5.23168C29.1008 5.45736 30.0384 5.85671 30.0384 7.12424ZM23.5406 7.12424C23.5406 8.49608 22.4824 9.08632 20.7744 9.08632C19.5955 9.08632 18.5839 8.78253 17.9989 8.17484C17.9618 8.12269 17.9618 8.05319 17.9989 8.00117L18.8158 7.01135C18.8621 6.94197 18.9736 6.94197 19.0293 7.00275C19.4564 7.41943 20.1246 7.6712 20.9415 7.6712C21.4149 7.6712 21.8048 7.54968 21.8048 7.21107C21.8048 6.88122 21.4521 6.81172 20.3753 6.59467C19.4285 6.41237 18.2496 6.00429 18.2496 4.69323C18.2496 3.46912 19.2706 2.7747 20.9508 2.7747C22.0553 2.7747 22.8446 3.08722 23.4014 3.58213C23.4571 3.62543 23.4571 3.71226 23.4107 3.76428L22.6402 4.70208C22.5939 4.76282 22.4918 4.77146 22.436 4.72804C22.0648 4.40689 21.4334 4.21577 20.8116 4.21577C20.2917 4.21577 19.9947 4.37211 19.9947 4.63261C19.9947 4.93649 20.3474 5.00587 21.48 5.23168C22.5939 5.45736 23.5313 5.85671 23.5406 7.12424ZM14.0074 2.78331C15.8733 2.78331 16.8108 3.55605 16.8108 5.23168V8.82595C16.8108 8.89544 16.7458 8.95619 16.6623 8.95619H15.2513C15.1771 8.95619 15.1122 8.90417 15.1122 8.82595V8.14002C14.7872 8.62633 14.1468 9.07771 13.1442 9.07771C11.8724 9.07771 10.9814 8.31369 10.9814 7.20235C10.9814 6.10849 11.854 5.41395 13.0329 5.30978L14.7872 5.16208C15.0192 5.13612 15.1122 5.06662 15.1122 4.91916V4.8236C15.1122 4.47627 14.7593 4.2245 13.9982 4.2245C13.3856 4.2245 12.745 4.38944 12.4666 4.87574C12.4295 4.94512 12.3366 4.95385 12.2716 4.91043L11.2506 4.21577C11.1948 4.18108 11.1762 4.10301 11.2135 4.05086C11.659 3.20875 12.6708 2.79203 14.0074 2.79203V2.78331ZM15.1122 6.50784V6.26479L13.534 6.44718C13.0142 6.51656 12.745 6.7683 12.745 7.10703C12.745 7.49766 13.0698 7.7494 13.6546 7.7494C14.5458 7.7494 15.1214 7.16766 15.1122 6.50784ZM9.83022 0.638852V8.8086C9.83022 8.8867 9.76527 8.94746 9.69109 8.94746H8.27076C8.19662 8.94746 8.1223 8.8867 8.1223 8.8086V0.638852C8.1223 0.569472 8.18729 0.508726 8.26157 0.508726L9.68176 0.508604C9.76527 0.508604 9.83022 0.569472 9.83022 0.638852ZM6.58141 2.90495C6.65559 2.90495 6.73 2.9657 6.73 3.04381V8.53938C6.73 10.0935 5.94089 11.5 3.24895 11.5C2.01444 11.5 1.16035 11.17 0.510611 10.6404C0.464191 10.6057 0.454855 10.5275 0.538486 10.3974L1.16968 9.39023C1.2069 9.32086 1.30894 9.3034 1.3739 9.36415C1.88438 9.78958 2.45995 10.0153 3.18399 10.0153C4.61353 10.0153 5.05904 9.32947 5.05904 8.46127V8.07928C4.64126 8.64355 3.92656 8.99949 3.00765 8.99949C1.29961 8.99949 0 7.90561 0 5.90013C0 3.8858 1.36457 2.76586 2.9611 2.76586C3.94512 2.76586 4.68781 3.20875 5.04984 3.75568V3.05241C5.04984 2.98294 5.11479 2.91356 5.1983 2.91356L6.58141 2.90495ZM3.4161 7.54095C4.3721 7.54095 5.07757 6.91591 5.07757 5.9261C5.07757 4.92776 4.3721 4.31133 3.4161 4.31133C2.45062 4.31133 1.73592 4.95385 1.73592 5.9261C1.73592 6.89855 2.45983 7.54095 3.4161 7.54095Z" fill="#0DAB40"/>
</svg>
